<svg width="60" height="68" viewBox="0 0 60 68" fill="none" xmlns="http://www.w3.org/2000/svg">
<g clip-path="url(#clip0_3002_55)">
<path fill-rule="evenodd" clip-rule="evenodd" d="M7.61235 41.2822C8.01759 40.4518 8.54988 39.6887 9.1905 39.0191C9.89733 38.2416 10.7877 37.6494 11.7821 37.2957C12.409 37.0834 13.0513 36.9215 13.6756 36.7021C14.7944 36.3462 15.8439 35.8049 16.7792 35.101C17.1764 34.7897 17.524 34.421 17.8102 34.0073C17.7814 34.006 17.7525 34.0084 17.7243 34.0145C17.2289 34.0758 16.7266 34.0574 16.237 33.9604C15.7447 33.8884 15.2552 33.7806 14.7701 33.6726C14.6268 33.6222 14.4728 33.6089 14.3228 33.6341C14.1729 33.6593 14.0319 33.7221 13.9134 33.8165C13.8 33.9023 13.6697 33.9635 13.5309 33.9964C13.1611 34.1115 12.7894 34.2195 12.4141 34.3094C11.881 34.4426 11.3356 34.5253 10.8109 34.6836C9.90933 34.9834 9.06573 35.4323 8.31599 36.0113C6.84042 37.0946 5.27326 38.0506 3.63196 38.868C3.42105 38.9687 3.20505 39.0767 2.95851 39.1954C2.97196 39.2026 2.98687 39.2098 2.99996 39.217C3.45524 39.3933 3.91562 39.5552 4.36508 39.7459C4.4598 39.7916 4.56577 39.8099 4.67057 39.7984C4.77537 39.7869 4.87471 39.7462 4.95708 39.6811C5.79635 39.1234 6.64722 38.5838 7.4945 38.0369C7.57486 37.9865 7.66249 37.9469 7.74904 37.9038C7.76206 37.9189 7.7742 37.9343 7.78544 37.9505C7.68253 38.0513 7.57668 38.152 7.4734 38.2528L7.60722 38.1664C7.68722 38.116 7.77526 38.0765 7.85962 38.0297C7.8706 38.0459 7.88275 38.0617 7.89595 38.0765L5.55635 40.3539C6.23453 40.7137 6.8854 41.0591 7.53304 41.4045C7.56169 41.3653 7.58813 41.3243 7.61235 41.2822ZM50.2622 64.8195C50.8004 65.3017 51.3168 65.8054 51.8622 66.2803C52.5335 66.9063 53.3444 67.3672 54.2295 67.6259C54.9618 67.8087 55.7138 67.904 56.4695 67.9101C56.9298 67.9191 57.3844 67.8101 57.7895 67.5935C58.3858 67.2877 58.9967 67.007 59.604 66.7192C59.6451 66.7135 59.6844 66.6983 59.7189 66.6757C59.7535 66.653 59.7826 66.6235 59.804 66.5883C59.8255 66.5534 59.8389 66.5138 59.8433 66.4731C59.8477 66.4321 59.8429 66.3911 59.8295 66.3522C59.816 66.2396 59.7746 66.132 59.7095 66.0392C59.5608 65.8608 59.3924 65.6989 59.2077 65.5571C58.8364 65.2883 58.4448 65.0476 58.0368 64.8375C57.3749 64.5029 56.6877 64.2151 56.0222 63.8877C54.9957 63.4009 54.0913 62.6943 53.3749 61.8189C53.0586 61.4231 52.7386 61.0274 52.404 60.646C51.644 59.7861 50.8778 58.9323 50.1058 58.0843C49.9858 57.9512 49.8695 57.8181 49.764 57.6777C49.4 57.2643 49.1298 56.7786 48.9713 56.253C48.7433 55.4859 48.4298 54.7462 48.0368 54.0475C47.7949 53.5466 47.5 53.0724 47.1568 52.6335C46.7058 52.1082 46.284 51.5613 45.8768 51.0037C45.4557 50.4687 45.1251 49.8696 44.8986 49.2299C44.4295 47.8976 43.7895 46.6304 42.9946 45.4593C42.9233 45.3859 42.8298 45.3366 42.7284 45.319C42.5564 45.2999 42.3902 45.247 42.2389 45.1643C42.144 45.1064 42.0382 45.0682 41.9277 45.052C41.8175 45.0359 41.7048 45.0423 41.5971 45.0707C33.2273 46.6286 29.5393 41.883 28.9618 41.0807C29.0749 42.1709 29.1265 43.1459 29.6185 44.0454C29.9366 44.6217 30.3153 45.1629 30.7483 45.6608C31.2141 46.1782 31.7322 46.6473 32.2945 47.0604C33.3987 47.8602 34.5469 48.5988 35.7338 49.2731C35.9653 49.4012 36.1817 49.5544 36.3789 49.73C36.8484 50.1643 37.2891 50.6284 37.6982 51.1188C38.108 51.5916 38.4858 52.0902 38.8295 52.6119C39.0007 52.8389 39.1291 53.0951 39.208 53.3675C39.3673 54.0248 39.6822 54.6354 40.1273 55.1484C40.7008 55.8461 41.3349 56.4926 42.0226 57.0805C43.1517 58.0922 44.4229 58.937 45.7968 59.5882C46.2186 59.7908 46.6302 60.0138 47.0295 60.2574C47.3877 60.4747 47.6982 60.7608 47.9422 61.0993C47.9506 61.108 47.9578 61.1177 47.964 61.1281C47.9931 61.1641 48.0258 61.1929 48.0513 61.2288C48.3717 61.6775 48.5593 62.206 48.5931 62.7543C48.6287 63.1026 48.7597 63.4347 48.9713 63.715C49.044 63.7967 49.1244 63.8711 49.2113 63.9381C49.5749 64.2187 49.924 64.5137 50.2622 64.8195ZM20.0887 67.8669C21.1597 67.9015 22.2077 67.5543 23.0414 66.8883C23.2818 66.7012 23.5353 66.5285 23.7687 66.3342C24.6513 65.5819 25.5972 64.9055 26.596 64.3122C26.8901 64.1309 27.1653 63.9211 27.4178 63.6862C27.5458 63.5754 27.6452 63.4361 27.7075 63.2796C27.7698 63.1231 27.7933 62.954 27.776 62.7867C27.7546 62.1441 27.5288 61.5246 27.1309 61.0166C26.874 60.6877 26.7173 60.2934 26.6792 59.8796C26.6154 59.0025 26.6234 58.1217 26.7033 57.246C26.7247 56.3969 26.7927 55.5514 26.8123 54.7023C26.8389 54.0212 26.6574 53.3477 26.2916 52.7702C26.0502 52.3716 25.8346 51.9582 25.6461 51.5325C25.5484 51.3415 25.5084 51.1263 25.5309 50.913C25.5534 50.7 25.6375 50.4978 25.773 50.3309C25.8984 50.1592 26.0085 49.9775 26.1021 49.7876C26.6612 48.6506 27.2162 47.5123 27.7672 46.3732C27.9269 46.0458 27.9821 45.9306 28.1476 45.5852C27.1901 45.1197 26.3296 44.48 25.6109 43.7C24.8254 42.8401 24.2016 41.8481 23.7687 40.7713C23.5309 40.9368 21.5069 42.6494 20.5094 43.3546C20.2297 43.542 20.0111 43.8057 19.8803 44.1137C19.6436 44.6714 19.377 45.2183 19.1338 45.7759C18.7397 46.6088 18.428 47.4777 18.2033 48.37C18.0745 48.851 18.0469 49.3533 18.1222 49.8451C18.1976 50.3373 18.3743 50.8087 18.6414 51.2303C18.813 51.493 18.9923 51.752 19.1749 52.0075C20.2069 53.4502 21.0876 54.9613 21.4509 56.7315C21.6327 57.6094 21.9447 58.4585 22.1723 59.3292C22.2849 59.7695 22.3693 60.2168 22.425 60.6676C22.4522 60.8543 22.434 61.0446 22.3719 61.2231C22.3099 61.4012 22.2058 61.5624 22.0683 61.693C21.8945 61.8775 21.732 62.0722 21.5814 62.2758C21.1733 62.7946 20.7087 63.2678 20.1959 63.6862C19.857 63.9632 19.517 64.2403 19.1883 64.5281C18.6564 64.9818 18.3149 65.6157 18.2309 66.3055C18.1922 66.5764 18.2033 66.8516 18.2636 67.1186C18.3046 67.2801 18.376 67.4327 18.4742 67.5683C18.6233 67.7076 18.8171 67.7903 19.0218 67.8022C19.3774 67.831 19.7331 67.8597 20.0887 67.8669ZM32.2876 2.3278C31.1705 1.94937 30.0237 1.663 28.8589 1.47155C28.1204 1.36105 27.3683 1.37683 26.6352 1.51828C25.9617 1.69605 25.3472 2.04606 24.8534 2.533C23.0224 4.15925 21.1932 5.78902 19.3658 7.42246C19.3085 7.49132 19.2297 7.53925 19.1418 7.55878C19.0539 7.57836 18.9619 7.56832 18.8803 7.53032C18.6114 7.42624 18.3148 7.4149 18.0385 7.49802C17.8003 7.55893 17.5785 7.67097 17.3887 7.826C17.199 7.98103 17.046 8.17539 16.9405 8.39536C16.835 8.61534 16.7797 8.8555 16.7783 9.09897C16.777 9.34243 16.8297 9.5832 16.9327 9.80429C17.001 9.94954 17.0887 10.0851 17.1934 10.2073C17.3817 10.4033 17.6176 10.5482 17.8786 10.6282C18.1397 10.7082 18.4171 10.7205 18.6844 10.6641C18.9122 10.6147 19.1271 10.5188 19.3151 10.3821C19.5031 10.2455 19.6601 10.0713 19.7758 9.87089C19.8915 9.67049 19.9635 9.44839 19.987 9.21878C20.0105 8.98916 19.9851 8.75713 19.9123 8.53784C20.0163 8.46948 20.1083 8.40461 20.2033 8.34704L23.809 6.11279C24.6134 5.61269 25.4181 5.11629 26.2229 4.61618C26.481 4.45788 26.5349 4.45777 26.7443 4.68084C26.869 4.81396 26.9778 4.96144 27.0945 5.10175C27.2236 5.26006 27.349 5.41847 27.485 5.56959C27.5396 5.63546 27.6138 5.68245 27.6971 5.70382C27.7804 5.72516 27.8684 5.71976 27.9484 5.68835C28.2691 5.5984 28.6029 5.55152 28.9327 5.49036C29.0585 5.46877 29.1873 5.45449 29.3196 5.4329C29.2353 5.07311 29.1501 4.75279 29.085 4.42539C28.9553 3.89196 28.9661 3.3345 29.1163 2.80635C29.1478 2.63698 29.2387 2.48416 29.373 2.37471C29.4018 2.3892 29.4293 2.40593 29.4553 2.42495C30.4618 3.38559 31.7098 3.72027 33.0582 3.77784C33.1793 3.79489 33.3026 3.77208 33.4094 3.71304C33.7076 3.48999 33.9194 3.17249 34.0094 2.81355C34.0029 2.81268 33.9966 2.8102 33.9913 2.80635C33.4233 2.64804 32.8534 2.49331 32.2876 2.3278ZM18.0196 8.57385C17.8981 8.64304 17.7964 8.7417 17.7244 8.86075C17.6523 8.97977 17.6122 9.11505 17.6079 9.25375C17.5701 9.18963 17.5414 9.12066 17.5229 9.0487C17.5181 9.07749 17.5036 9.09548 17.5003 9.12426C17.4453 9.05241 17.4067 8.96977 17.387 8.88183C17.3672 8.79387 17.3669 8.70273 17.3859 8.61462C17.405 8.52651 17.4431 8.44354 17.4975 8.37129C17.552 8.29908 17.6215 8.23922 17.7014 8.19597C17.7724 8.14545 17.8529 8.10962 17.9382 8.09041C18.0234 8.07116 18.1117 8.06896 18.1978 8.08407C18.2839 8.09915 18.366 8.13121 18.4394 8.17823C18.5128 8.22526 18.5759 8.28638 18.625 8.35795C18.7164 8.43915 18.7929 8.53532 18.8512 8.64218C18.7272 8.56839 18.5877 8.5237 18.4435 8.51183C18.2993 8.49999 18.1542 8.52129 18.0196 8.57385ZM39.3651 41.0915C38.7644 40.6371 38.0818 40.3 37.3538 40.0985C36.5564 39.861 34.5 39.5732 33.1065 38.4255C33.1567 38.537 33.1909 38.609 33.2265 38.6809C33.89 39.8373 34.9049 40.7576 36.1272 41.311C37.4506 41.8895 38.852 42.2738 40.2873 42.4515C40.5102 42.4803 40.7367 42.4839 41.0269 42.5055C41.004 42.4803 39.9015 41.5052 39.3637 41.0915H39.3651ZM29.9203 45.7004C28.0396 43.3654 27.9803 40.2352 28.4112 38.7924C28.49 38.8712 28.5644 38.954 28.6342 39.0407C28.6454 39.0551 28.6563 39.0731 28.6676 39.0875C28.6937 39.1134 28.718 39.1411 28.7403 39.1702C29.3735 40.1046 30.0561 41.0055 30.785 41.8686C31.094 42.236 31.4538 42.558 31.8538 42.8257C32.3778 43.1376 32.9321 43.3967 33.5084 43.5992C34.4848 43.9525 35.4951 44.2073 36.5237 44.3584C37.3997 44.4998 38.2833 44.5876 39.1702 44.621C40.0073 44.6538 40.8458 44.5883 41.6677 44.4267C41.7502 44.403 41.8375 44.3987 41.9222 44.4145C42.0069 44.43 42.0866 44.4652 42.1553 44.5167C42.412 44.7063 42.7324 44.7926 43.0509 44.7577C43.2422 44.743 43.4288 44.6901 43.5989 44.6019C43.7691 44.5142 43.92 44.3933 44.0418 44.2465C44.1637 44.0997 44.2542 43.9302 44.3084 43.7478C44.3626 43.5654 44.3786 43.374 44.3564 43.1855C44.316 42.9286 44.2109 42.6861 44.0509 42.4803C43.8666 42.2928 43.6309 42.1626 43.3728 42.1061C43.0829 42.0331 42.7775 42.055 42.5015 42.1687C42.2255 42.282 41.9942 42.481 41.8422 42.7357C41.816 42.7839 41.7782 42.8253 41.7324 42.8563C41.6862 42.8868 41.6335 42.9063 41.5782 42.912C41.1506 42.9336 40.7218 42.9876 40.2964 42.9696C39.4095 42.9225 38.5317 42.7717 37.6808 42.5199C36.3931 42.191 35.181 41.6207 34.1109 40.8396C33.7216 40.545 33.3728 40.2017 33.0734 39.8178C32.7464 39.4329 32.4873 38.9964 32.3069 38.5262C32.1431 38.1355 32.0625 37.7152 32.0701 37.2921C32.1422 37.3216 32.2126 37.3551 32.2807 37.3929C33.3932 38.0293 34.5686 38.5514 35.7887 38.9508C37.0211 39.3573 38.3175 39.5401 39.6157 39.4904C40.6237 39.4545 41.6291 39.3501 42.636 39.2674C42.7197 39.2602 42.8026 39.2458 42.8855 39.2314C42.6022 39.199 42.3171 39.1666 42.0371 39.1306C40.7778 38.9713 39.5688 38.5427 38.4935 37.875C37.6989 37.3821 36.9418 36.8316 36.1662 36.3063C35.6596 35.968 35.1582 35.6191 34.6389 35.2989C34.47 35.1919 34.3271 35.0493 34.2204 34.8814C34.0212 34.6601 33.9004 34.3805 33.8762 34.0851C33.8521 33.7897 33.9259 33.4946 34.0865 33.2445C34.9229 31.9636 35.6847 30.636 36.4895 29.3335C36.7226 28.9558 36.9946 28.5995 37.2575 28.2254C39.0266 28.4448 40.6178 29.1717 42.2757 29.8121C42.1193 29.2353 41.9957 28.6503 41.9055 28.0599C41.9731 28.0563 42.0033 28.0527 42.0331 28.0527C43.1433 28.1031 44.2535 28.1679 45.3626 28.2074C46.4848 28.2626 47.6095 28.2458 48.7298 28.157C49.1248 28.1149 49.516 28.0439 49.9008 27.9448C50.0648 27.9029 50.2131 27.8145 50.3277 27.6906C50.4418 27.5667 50.5171 27.4125 50.5444 27.2468C50.5967 26.9159 50.5797 26.5777 50.4935 26.2537C50.3953 25.6673 50.268 25.0845 50.1807 24.4945C50.1226 24.0843 50.1153 23.6669 50.0717 23.2531C49.9724 22.4609 49.7669 21.6853 49.4608 20.9469C48.5484 18.6387 47.4313 16.415 46.1226 14.3016C46.0262 14.1595 45.9644 13.997 45.9422 13.8272C45.9204 13.6573 45.9382 13.4847 45.9953 13.323C46.0498 13.1682 46.1044 13.0172 46.1698 12.8697C46.3953 12.3811 46.5658 11.8695 46.6789 11.3441C46.7986 10.8437 46.8393 10.3278 46.7989 9.81502C46.7553 9.42285 46.7226 9.02715 46.6826 8.63498C46.6328 8.22626 46.4604 7.84154 46.188 7.53032C46.108 7.44038 46.028 7.35043 45.9408 7.26768C45.8928 7.21288 45.8258 7.17802 45.7528 7.17C45.68 7.16201 45.6069 7.18162 45.548 7.22465C45.4171 7.31459 45.2971 7.4225 45.1517 7.54123C45.0389 7.45308 44.9018 7.4004 44.7586 7.39015C44.6153 7.37986 44.4724 7.41246 44.348 7.48359C44.0171 7.6311 44.068 7.95128 44.0462 8.2499C43.6935 8.02323 43.368 7.81456 43.0458 7.60588C42.9473 7.53202 42.8258 7.49489 42.7022 7.50082C42.5789 7.50672 42.4615 7.55544 42.3709 7.63837C41.8051 8.06094 41.3578 8.6194 41.0717 9.26094C41.0258 9.36186 40.9895 9.46667 40.9626 9.57399C40.9433 9.64333 40.9418 9.71622 40.9586 9.7862C40.9997 9.8034 41.0437 9.81239 41.088 9.81239C41.1327 9.81239 41.1768 9.8034 41.2178 9.7862C41.5429 9.66459 41.832 9.46433 42.0589 9.20348C42.1251 9.13153 42.1902 9.0595 42.2738 8.96595C42.3011 9.03071 42.3084 9.08821 42.332 9.14937C42.3495 9.13138 42.3622 9.11703 42.3815 9.09544C42.6251 9.61774 42.7375 10.1907 42.7084 10.7653C42.6797 11.3398 42.5106 11.8989 42.2157 12.3947C42.012 12.2471 41.8378 12.1034 41.6498 11.9846C41.2528 11.7328 40.8415 11.5889 40.4135 11.9019C40.3808 11.8846 40.3495 11.8653 40.3193 11.8443C40.272 11.8047 40.2273 11.7652 40.1829 11.722C39.8778 11.4345 39.6015 11.1189 39.3575 10.7793C39.0818 10.4242 38.8335 10.049 38.6153 9.65675C38.2698 9.0536 38.1171 8.36133 38.1764 7.67071C38.176 7.63898 38.1709 7.60757 38.1618 7.57724C36.2928 7.34921 34.3958 7.56875 32.6305 8.21759C32.7821 8.11325 32.937 8.01615 33.0912 7.9226C32.9021 7.98017 32.7116 8.02694 32.5229 8.0881C33.3214 7.50532 34.2346 7.09473 35.2036 6.88278C36.1725 6.67083 37.1757 6.66226 38.148 6.85766C38.124 6.05329 38.2622 5.25211 38.5538 4.50094C38.8557 3.75751 39.3098 3.08384 39.8873 2.5221C40.4684 1.9648 41.1626 1.53563 41.9237 1.26284C42.7055 1.0012 43.532 0.89718 44.3553 0.956988C44.352 0.951972 44.3484 0.947327 44.3444 0.942758C44.3226 0.913097 44.2953 0.887354 44.2644 0.86704C44.0415 0.726727 43.8062 0.60632 43.5618 0.507252C42.0891 -0.0332608 40.4895 -0.139353 38.9571 0.201575C38.0491 0.377815 37.2098 0.804337 36.5364 1.43202C36.0705 1.88176 35.6545 2.38547 35.2356 2.87838C34.8822 3.29573 34.5447 3.72751 34.2229 4.17364C34.1053 4.32738 33.9484 4.44705 33.7682 4.52044C33.5881 4.59384 33.3914 4.61816 33.1985 4.59089C32.5158 4.56279 31.8409 4.43557 31.1956 4.21318C30.671 4.07305 30.193 3.79885 29.8094 3.41806C29.7783 3.41645 29.7473 3.42003 29.7174 3.42878C29.631 4.36735 29.7438 5.31352 30.0487 6.20641C29.9269 6.2244 29.8392 6.24235 29.7509 6.25315C29.2781 6.32511 28.7992 6.37911 28.3327 6.47625C27.5156 6.61049 26.7368 6.91584 26.0487 7.37205C24.8446 8.23519 23.8569 9.36028 23.1614 10.6606C23.0926 10.7966 23.037 10.9388 22.9952 11.0852C22.9948 11.1045 22.9968 11.1237 23.001 11.1426C23.064 11.1103 23.1313 11.0779 23.1803 11.0492C23.944 10.5814 24.7032 10.11 25.4669 9.64232C26.1593 9.21827 26.9819 9.05248 27.7869 9.17467C28.1779 9.19694 28.5516 9.34182 28.8538 9.58839C28.9925 9.71489 29.1167 9.856 29.2243 10.0093C29.5871 10.4534 29.7783 11.0108 29.7636 11.5816C29.752 12.5531 29.7541 13.5245 29.7636 14.496C29.7857 14.6559 29.7651 14.8186 29.7038 14.9682C29.6426 15.1178 29.5429 15.2489 29.4145 15.3485C29.3303 15.4092 29.271 15.4979 29.2473 15.5983C29.2237 15.6987 29.2374 15.8041 29.2858 15.8954C29.3871 16.1499 29.523 16.3896 29.6898 16.6078C29.872 16.8194 30.0979 16.99 30.3523 17.1079C30.7294 17.2806 31.1345 17.3958 31.5258 17.5361C31.5714 17.5589 31.6143 17.5866 31.6538 17.6188C31.6214 17.6296 31.5927 17.6332 31.5625 17.6404C31.5861 17.6505 31.6104 17.6591 31.6352 17.6657C31.6808 17.6885 31.7236 17.7163 31.7629 17.7485C31.653 17.7915 31.535 17.8099 31.4171 17.8024C30.9925 17.8197 30.5691 17.7471 30.1751 17.5895C29.7812 17.4319 29.4258 17.1929 29.1327 16.8885C28.781 16.5215 28.4418 16.1437 28.0745 15.7911C27.7615 15.4622 27.3727 15.2132 26.9412 15.0653C26.5098 14.9175 26.0486 14.8752 25.5971 14.942C24.952 15.0355 24.3083 15.1363 23.6636 15.2335C22.9578 15.3414 22.2549 15.4818 21.5451 15.5393C19.7357 15.718 17.927 15.1929 16.5021 14.075C16.4149 14.0067 16.3203 13.9491 16.1909 13.8591C16.1946 13.9438 16.2053 14.0279 16.2229 14.1109C16.3924 14.6107 16.6347 15.0836 16.9421 15.5142C17.2492 15.9098 17.6247 16.2484 18.0512 16.5143C19.327 17.264 20.7568 17.7202 22.2349 17.8491C23.1287 17.9415 24.0301 17.9366 24.9229 17.8347C25.0956 17.8167 25.1484 17.86 25.1814 17.9823C25.2231 17.9955 25.259 18.0221 25.2833 18.058C25.3077 18.0939 25.3191 18.137 25.3156 18.1801C25.3362 18.3001 25.3431 18.4221 25.3363 18.5436C25.3098 18.925 25.2821 19.3099 25.2367 19.6913C25.1581 20.3425 25.0647 20.9936 24.9821 21.6448C24.9714 21.7078 24.9669 21.7718 24.9687 21.8356C25.0854 21.7097 25.1949 21.5873 25.3058 21.4721C25.8479 20.8778 26.4951 20.3865 27.2156 20.0222C27.68 19.7831 28.2043 19.6819 28.7254 19.7308C28.9712 19.756 29.0527 19.7777 29.0982 19.9216C29.1493 19.9616 29.1898 20.0131 29.2163 20.072C29.2428 20.1309 29.2544 20.1955 29.2501 20.2598C29.3746 21.2137 29.3816 22.1789 29.2709 23.1344C29.2345 23.5373 29.1851 23.9367 29.1454 24.3397C29.1465 24.3496 29.1488 24.3593 29.1523 24.3685C29.1799 24.3783 29.2093 24.3819 29.2385 24.3793C29.3084 24.3647 29.3758 24.3406 29.4389 24.3074C29.7044 24.1563 29.9774 24.016 30.2272 23.8433C31.4229 23.0276 32.5199 22.0786 33.4967 21.0152C33.5629 20.955 33.6335 20.8996 33.708 20.8497C33.7367 20.9145 33.7534 20.954 33.7778 21.008C33.793 20.9972 33.7985 20.9902 33.8142 20.9794C33.8793 21.1269 33.9334 21.2311 33.972 21.3427C34.1323 21.7996 34.2662 22.2673 34.4494 22.717C34.5845 23.047 34.767 23.3561 34.9913 23.6346C35.2345 23.9115 35.5217 24.1472 35.8418 24.3325C36.5909 24.7319 37.4357 24.9222 38.2858 24.8829C38.3146 24.865 38.3404 24.8433 38.3629 24.8183C37.8368 24.244 37.4611 23.5511 37.2688 22.7999C37.1095 22.0233 37.1673 21.2184 37.4364 20.472H37.6938C38.1517 20.4906 38.6102 20.4823 39.0669 20.4469C40.8047 20.231 41.8808 19.1911 42.5149 17.6332C42.548 17.5486 42.5604 17.4574 42.5513 17.367C42.4975 17.403 42.4422 17.4426 42.3953 17.4749C42.1309 17.6797 41.8535 17.8672 41.5644 18.0362C40.7015 18.4318 39.7622 18.638 38.8113 18.6407C38.1277 18.6679 37.4433 18.6281 36.7677 18.522C36.2605 18.4647 35.7654 18.3301 35.3 18.1226C35.0777 18.0153 34.8833 17.859 34.7316 17.6657C34.5577 17.5046 34.4319 17.299 34.368 17.0719C34.3283 16.9724 34.3161 16.8642 34.3328 16.7585C34.3494 16.6528 34.3943 16.5534 34.4628 16.4706C34.5312 16.3877 34.6208 16.3244 34.7221 16.2872C34.8235 16.25 34.9331 16.2402 35.0396 16.2589C35.2127 16.2701 35.3843 16.2978 35.552 16.3416C36.1087 16.5035 36.6608 16.6799 37.2164 16.849C37.3553 16.8886 37.5004 16.9102 37.6837 16.9461C37.5422 16.5072 37.4237 16.1257 37.2931 15.7443C37.2193 15.5434 37.2091 15.3252 37.2637 15.1184C37.3237 14.8917 37.3727 14.6579 37.4255 14.4132C36.9309 14.4403 36.4375 14.3463 35.9884 14.1397C35.7235 14.0095 35.4921 13.8213 35.312 13.5893C35.1144 13.3824 34.9745 13.1281 34.9061 12.8516C34.9721 12.8714 35.0337 12.9032 35.0879 12.9452C35.4742 13.2633 35.9274 13.4919 36.4146 13.6144C36.7735 13.6828 37.1393 13.726 37.5055 13.762C37.5462 13.7692 37.588 13.7679 37.628 13.7581C37.6684 13.7483 37.7058 13.7302 37.7386 13.705C37.7713 13.68 37.7982 13.6484 37.8178 13.6123C37.8375 13.5762 37.8491 13.5365 37.852 13.4957C37.9182 13.233 37.9742 12.9668 38.0444 12.7005C38.0455 12.6595 38.0557 12.6193 38.0742 12.5827C38.0931 12.546 38.1197 12.514 38.1527 12.4889C38.1855 12.4637 38.2233 12.446 38.264 12.4372C38.3044 12.4284 38.3466 12.4286 38.3869 12.4379C38.5197 12.4343 38.6527 12.438 38.7847 12.4272C39.2258 12.4211 39.6578 12.3033 40.04 12.0853C40.096 12.0493 40.1557 12.017 40.1949 11.9954C40.3226 12.1103 40.46 12.2138 40.6062 12.3047C40.8008 12.408 40.9651 12.5593 41.0837 12.7437C41.2353 12.9085 41.3473 13.1055 41.4109 13.3194C41.4873 13.5785 41.5564 13.8447 41.6226 14.1074C41.7146 14.4928 41.8949 14.8522 42.1495 15.1579C42.2513 15.2624 42.3622 15.3575 42.4815 15.4421C42.6713 15.582 42.8397 15.748 42.9822 15.9351C43.1353 16.1042 43.2669 16.2915 43.3735 16.4927C43.5142 16.7506 43.6346 17.0188 43.7335 17.2951C43.8858 17.734 44.0138 18.1802 44.1411 18.6263C44.3593 19.4142 44.5666 20.2093 44.7847 20.9973C44.896 21.3459 44.9429 21.7116 44.9229 22.0766C44.9277 22.1604 44.9124 22.2443 44.8778 22.321C44.8433 22.3977 44.7909 22.4651 44.7247 22.5176C44.6586 22.5701 44.5804 22.6061 44.4971 22.6227C44.4142 22.6392 44.328 22.6359 44.2466 22.6128C43.8913 22.5705 43.548 22.4578 43.2378 22.2816C42.7055 21.9992 42.2367 21.6125 41.8604 21.1448C41.6833 20.9254 41.4822 20.7239 41.3113 20.5368C40.2069 21.0621 39.0531 21.0692 37.9088 21.1123C37.7742 21.5252 37.7528 21.966 37.8462 22.3897C38.0248 23.2123 38.3695 23.9906 38.86 24.6779C38.9938 24.8758 39.1371 25.0737 39.2964 25.2968C39.1971 25.3557 39.0909 25.4027 38.9808 25.437C38.6451 25.5177 38.3015 25.56 37.956 25.563C36.8357 25.5088 35.7649 25.0902 34.9098 24.3721C34.7134 24.2052 34.5329 24.021 34.3705 23.8216C33.9109 23.3226 33.6252 22.6907 33.5556 22.019C33.5273 22.0478 33.496 22.073 33.4742 22.0946C32.3786 23.2304 31.0898 24.1671 29.6665 24.8615C29.3501 25.0126 29.0054 25.1024 28.6418 25.2355C28.6418 25.1707 28.6418 25.1204 28.6418 25.07C28.6054 25.0808 28.572 25.0916 28.536 25.106C28.536 24.9333 28.5287 24.811 28.536 24.6923C28.5578 24.3793 28.5949 24.0663 28.6105 23.7533C28.656 22.8251 28.7007 21.8967 28.7301 20.9685C28.7284 20.7696 28.7112 20.5711 28.6785 20.3748C28.666 20.3698 28.653 20.3662 28.6396 20.3641C28.5685 20.3707 28.498 20.3826 28.4287 20.4C27.9158 20.5367 27.4303 20.7594 26.9934 21.0584C26.3025 21.4901 25.6153 21.9255 24.9265 22.3572C24.8492 22.4036 24.7693 22.4457 24.6873 22.4832C24.6654 22.4148 24.6509 22.3716 24.6374 22.3249C24.6177 22.3332 24.5985 22.3429 24.58 22.3537C24.5472 22.2786 24.5227 22.2002 24.5073 22.1199C24.4847 21.6054 24.4407 21.0909 24.4589 20.5764C24.4833 19.9 24.5596 19.2272 24.6094 18.5508C24.6091 18.5423 24.6077 18.5337 24.6054 18.5255C23.812 18.5327 23.0447 18.5508 22.2782 18.5436C21.471 18.5547 20.6673 18.4356 19.8989 18.191C19.5112 18.0558 19.0863 18.0699 18.7087 18.2305C18.2829 18.3996 17.8643 18.5831 17.436 18.7486C16.944 18.9429 16.4509 19.1299 15.9501 19.299C15.7853 19.3535 15.6107 19.3732 15.4377 19.3564C15.2647 19.3397 15.0972 19.2871 14.9461 19.202C13.6017 18.4974 12.3096 17.699 11.0796 16.813C10.3887 16.3093 9.73959 15.7516 9.07013 15.2227C8.47231 14.7478 7.85526 14.298 7.27889 13.8015C6.87028 13.4347 6.41562 13.1216 5.92613 12.8697C5.84468 12.8301 5.76508 12.7833 5.66144 12.7293C5.66144 12.7042 5.66144 12.6789 5.66144 12.6573C5.62508 12.6357 5.59631 12.6214 5.55413 12.5999C5.55413 12.4092 5.56395 12.2184 5.55122 12.0277C5.53693 11.826 5.60373 11.6268 5.73704 11.4736C6.38006 10.6855 6.89028 9.79994 7.24799 8.85089C7.5602 7.96297 7.75668 7.03921 7.83268 6.10207C7.9277 4.94229 7.9413 3.77741 7.8734 2.61574C7.8645 2.45366 7.84311 2.29237 7.80944 2.1335C7.7798 1.98696 7.72664 1.84618 7.65199 1.71627C7.5921 1.62796 7.52042 1.54803 7.4389 1.47875C7.16089 1.27122 6.84242 1.123 6.50362 1.04342C5.28053 0.714587 4.007 0.609774 2.74579 0.734056C2.13332 0.791068 1.54502 0.998752 1.03452 1.33838C0.77411 1.50049 0.551975 1.71613 0.3832 1.97065C0.214423 2.22517 0.102951 2.51265 0.0563393 2.81355C-0.0233415 3.34512 -0.00326096 3.88664 0.115599 4.411C0.187299 4.76215 0.335473 5.09373 0.549793 5.3825C0.624299 5.46539 0.705259 5.54246 0.791957 5.6128C0.809949 5.63291 0.824135 5.65604 0.833793 5.68116C0.857066 5.69915 0.87452 5.72429 0.899248 5.74228C0.972295 5.82345 1.01221 5.92855 1.01124 6.03724C1.11265 7.56724 1.57588 9.05237 2.3636 10.3728C2.67742 10.9053 3.03159 11.4125 3.37341 11.927C3.51537 12.1269 3.57708 12.3719 3.54651 12.6143C3.38978 12.6143 3.24832 12.6035 3.11014 12.6143C2.78535 12.6316 2.46166 12.6651 2.14032 12.7149C2.0829 12.7147 2.02622 12.7278 1.9748 12.753C1.92338 12.7783 1.87865 12.8151 1.84423 12.8606C1.80979 12.906 1.78662 12.9589 1.77653 13.0148C1.76645 13.0707 1.76973 13.1282 1.78614 13.1826C1.80794 13.3253 1.84102 13.4661 1.88506 13.6037C1.86106 13.6217 1.82142 13.6468 1.78033 13.6755C1.71476 13.7031 1.65552 13.7435 1.60617 13.7943C1.55681 13.8451 1.51837 13.9053 1.49315 13.9712C1.46793 14.0371 1.45647 14.1072 1.45946 14.1776C1.46244 14.248 1.4798 14.3171 1.51051 14.3807C1.55024 14.4314 1.5959 14.4774 1.64652 14.5176C1.69541 14.555 1.74789 14.5875 1.80323 14.6147C1.92323 14.6651 2.04616 14.7118 2.19088 14.7658C2.16797 14.7874 2.14869 14.809 2.12614 14.8269C2.18323 14.8521 2.23524 14.87 2.29815 14.8988C2.19583 14.959 2.10824 15.0409 2.04167 15.1386C1.97509 15.2362 1.93117 15.3473 1.91305 15.4638C1.91221 15.557 1.94208 15.6478 1.99815 15.7227C2.05487 15.7767 2.11524 15.8306 2.16942 15.8882C2.16469 15.8954 2.16651 15.9026 2.16214 15.9098C2.20141 15.9458 2.24069 15.9819 2.27669 16.0178C2.20095 16.1258 2.15611 16.252 2.1469 16.3831C2.13768 16.5142 2.16443 16.6453 2.22433 16.7626C2.28399 16.8424 2.3626 16.9064 2.45322 16.9491C2.54385 16.9918 2.64371 17.0118 2.74397 17.0073C2.94808 17.0087 3.15164 17.0279 3.35233 17.0647C3.40136 17.0632 3.4494 17.0786 3.48836 17.1081C3.52731 17.1376 3.55479 17.1795 3.56615 17.2267C3.60212 17.2359 3.63386 17.257 3.65613 17.2864C3.67839 17.3158 3.68988 17.3519 3.68868 17.3887C3.69886 17.6369 3.71126 17.885 3.72508 18.1441C3.3567 18.2124 3.00579 18.2665 2.66143 18.3493C2.19693 18.43 1.76281 18.6325 1.40433 18.9357C1.29729 19.0151 1.22132 19.1288 1.18931 19.2574C1.15729 19.3859 1.17122 19.5213 1.2287 19.6409C1.25664 19.6779 1.28739 19.7128 1.3207 19.7452C1.53396 19.9165 1.7746 20.0515 2.0327 20.1445C3.54175 20.6514 5.1746 20.6703 6.69522 20.1985C7.00228 20.1172 7.28682 19.9684 7.52759 19.7631C7.64948 19.6866 7.7389 19.5688 7.77908 19.4316C7.81926 19.2945 7.80744 19.1476 7.7458 19.0184C7.70562 18.9665 7.65951 18.9194 7.60835 18.8781C7.36944 18.7076 7.10631 18.5731 6.82759 18.4788C6.48686 18.3564 6.12617 18.2845 5.76944 18.191V18.0866C5.73308 18.0794 5.69668 18.0685 5.66031 18.0613V17.1944C5.87159 17.2915 6.05671 17.3634 6.23271 17.4533C7.17835 17.9429 8.0146 18.6158 8.69159 19.4322C8.7225 19.4681 8.75086 19.5078 8.7814 19.5437C8.78686 19.5509 8.7938 19.5546 8.79889 19.5618C9.4709 20.3605 10.0923 21.2024 10.7262 22.0371C10.9342 22.3105 11.1385 22.584 11.3509 22.8538C11.5622 23.1226 11.7896 23.3785 12.032 23.6201C12.4393 24.0523 12.9735 24.3468 13.5593 24.462C14.2138 24.5663 14.8712 24.6563 15.5312 24.6958C16.2025 24.739 16.8767 24.7103 17.5512 24.7139C17.6305 24.7139 17.7098 24.721 17.8003 24.7246C17.8072 24.7678 17.8141 24.8074 17.821 24.8506C17.8498 24.8536 17.8787 24.8549 17.9076 24.8543C18.0709 25.8437 18.2316 26.8223 18.392 27.8009C18.4408 27.7383 18.4806 27.6692 18.5102 27.5957C18.7128 27.0446 19.0215 26.5375 19.4193 26.1026C19.7948 25.7173 20.2417 25.4071 20.7356 25.1888C20.8231 25.1598 20.9138 25.1417 21.0058 25.1348C21.0207 25.1888 21.0294 25.2319 21.0422 25.2787C21.0669 25.2751 21.0861 25.2679 21.1127 25.2643C21.1454 25.3903 21.1789 25.4838 21.1941 25.5846C21.3072 26.3042 21.4298 27.0201 21.5214 27.7433C21.5729 28.155 21.5947 28.5699 21.5865 28.9846C21.5972 29.2917 21.4938 29.5919 21.2959 29.8286C21.0979 30.0653 20.8191 30.222 20.5123 30.269C20.2149 30.3338 19.9207 30.4166 19.6269 30.4994C18.1309 30.9275 16.633 31.3448 15.1414 31.7837C14.1882 32.0912 13.1801 32.1955 12.1833 32.0896C11.9425 32.0608 11.6989 32.0356 11.4116 31.9996C11.5297 32.1327 11.6816 32.232 11.8516 32.2874C12.1225 32.3737 12.397 32.453 12.6676 32.5393C13.3736 32.7752 14.1079 32.918 14.8516 32.9639C15.8305 33.0071 16.8101 33.0179 17.7898 33.0323C18.6174 33.0484 19.4428 32.9404 20.2378 32.712C20.3012 32.6981 20.3657 32.6898 20.4305 32.6869C20.3942 32.7458 20.3509 32.8 20.3014 32.8487C20.316 32.8451 20.3309 32.8451 20.3454 32.8415C20.4088 32.8276 20.4733 32.8192 20.5381 32.8164C20.4766 32.9478 20.3854 33.0635 20.2716 33.1545C19.7676 33.5647 19.2702 33.9857 18.7498 34.3743C18.0539 34.8728 17.401 35.4275 16.7978 36.0329C16.3836 36.4646 15.9585 36.8856 15.5393 37.3173C15.1276 37.7383 14.6963 38.1412 14.3113 38.5874C13.5185 39.5012 12.6904 40.3816 11.8269 41.2282C11.5621 41.4649 11.2853 41.6884 10.9974 41.8974C10.9451 41.937 10.885 41.9654 10.821 41.9809C10.7569 41.9964 10.6903 41.9985 10.6254 41.9874C10.4432 41.9625 10.2582 41.9651 10.0767 41.9946C9.69337 42.0795 9.35857 42.309 9.14322 42.6339C8.92784 42.9592 8.84882 43.3542 8.9229 43.7359C8.96202 43.9097 9.0313 44.0752 9.12762 44.2252C9.33079 44.4832 9.61562 44.6667 9.93657 44.7455C10.2575 44.8247 10.5959 44.7948 10.8976 44.6606C11.1994 44.5267 11.4469 44.2965 11.6007 44.0069C11.7545 43.7172 11.8056 43.3848 11.7458 43.0631C11.7225 42.98 11.7217 42.8926 11.7436 42.8091C11.7654 42.7256 11.8091 42.6497 11.8701 42.5882C12.1413 42.2853 12.4583 42.0255 12.8098 41.8183C14.3715 40.8217 15.9322 39.825 17.492 38.8284C18.0564 38.465 18.6047 38.0765 19.1621 37.7023C19.2498 37.648 19.3406 37.5987 19.4342 37.5548C19.4516 37.5692 19.4705 37.5872 19.4858 37.6015C19.469 37.6483 19.4512 37.6951 19.4349 37.7419C19.4712 37.7239 19.5076 37.7023 19.5418 37.6843C19.5589 37.6987 19.576 37.7167 19.5934 37.7311C19.5014 37.9865 19.4251 38.2492 19.3149 38.4938C18.5996 40.1021 17.8829 41.7103 17.1509 43.315C16.9876 43.6712 16.7607 43.9986 16.5629 44.3404C16.5236 44.4102 16.4643 44.467 16.3923 44.5034C16.3204 44.5401 16.2392 44.5548 16.1589 44.5455C15.896 44.5379 15.6365 44.6055 15.4115 44.7401C15.1865 44.8747 15.0055 45.0707 14.8901 45.3046C14.7492 45.5619 14.6916 45.8558 14.7251 46.1469C14.7586 46.4376 14.8816 46.7114 15.0774 46.9309C15.3109 47.1349 15.606 47.2565 15.9167 47.2773C16.2275 47.2982 16.5365 47.2169 16.7956 47.046C17.0433 46.8895 17.2368 46.6621 17.3504 46.3941C17.464 46.126 17.4922 45.8299 17.4313 45.5457C17.409 45.4798 17.4088 45.4082 17.4306 45.342C17.4525 45.2762 17.4953 45.2186 17.5527 45.1787C17.7604 45.0168 17.9694 44.8549 18.1749 44.6894C18.7109 44.2504 19.2741 43.8439 19.7749 43.3725C21.2319 41.9982 22.6643 40.5986 24.1083 39.2098C24.1665 39.1188 24.2565 39.0522 24.361 39.0227C24.3661 39.0839 24.3709 39.1378 24.3759 39.199C24.4022 39.1756 24.434 39.1598 24.4684 39.1522C24.4887 39.3897 24.6825 41.2606 25.4112 42.3543C26.7381 44.3656 29.8341 45.6896 29.9203 45.7004ZM42.2211 42.9804C42.2877 42.8487 42.3917 42.739 42.5208 42.6656C42.6495 42.5922 42.7975 42.5576 42.9462 42.5666C43.0349 42.5673 43.1222 42.5886 43.2008 42.6292C43.2793 42.6699 43.3469 42.7285 43.3982 42.8005C43.504 42.8811 43.5888 42.9861 43.6444 43.1063C42.8317 42.9012 42.5742 43.0272 42.3858 43.7287C42.3447 43.6705 42.3164 43.6043 42.3026 43.5345C42.2953 43.5596 42.2855 43.5704 42.2782 43.5956C42.2029 43.5129 42.1568 43.4082 42.1462 43.2974C42.1357 43.1865 42.1615 43.0754 42.22 42.9804H42.2211ZM36.6022 10.3403C35.8294 10.182 35.0436 10.0237 34.2582 9.86175L34.2505 9.7862C34.2756 9.779 34.3003 9.77548 34.3254 9.76828C34.2669 9.75749 34.2094 9.74666 34.1505 9.73227L34.1429 9.65675C34.2774 9.62436 34.4109 9.58839 34.5469 9.5668C35.028 9.49124 35.508 9.40126 35.992 9.35089C36.0976 9.33837 36.2045 9.35956 36.2971 9.4113C36.3898 9.46307 36.4633 9.54287 36.5069 9.63883C36.5982 9.72939 36.6567 9.84707 36.6738 9.97383C36.6906 10.1006 36.6651 10.2293 36.6011 10.3403H36.6022ZM3.60179 3.20566C3.4767 3.27043 3.34397 3.32801 3.22324 3.39996C3.10064 3.48503 2.95115 3.52356 2.80219 3.50836C2.65323 3.49316 2.51482 3.42526 2.41234 3.31722C2.28905 3.21149 2.1596 3.11304 2.02469 3.02226C1.97233 2.97239 1.90766 2.93691 1.83715 2.91949C1.76663 2.90206 1.69273 2.90334 1.62281 2.923C1.5529 2.94266 1.48942 2.98005 1.43871 3.03157C1.38799 3.08308 1.35182 3.14689 1.33379 3.21656C1.25264 3.45375 1.20372 3.70059 1.18833 3.95054C1.16433 4.1916 1.18579 4.43618 1.1767 4.68084C1.16298 4.80896 1.14233 4.93629 1.11487 5.06225C1.01148 4.98712 0.914215 4.90416 0.82396 4.81399C0.80796 4.796 0.802517 4.77086 0.787608 4.75287C0.761277 4.73236 0.736928 4.70948 0.714877 4.68451C0.548204 4.46561 0.445899 4.20527 0.419244 3.93244C0.33538 3.48281 0.363453 3.01973 0.501051 2.58324C0.609488 2.26649 0.815022 1.99109 1.08905 1.79532C1.59627 1.43425 2.19085 1.21208 2.81269 1.15129C3.96853 1.00356 5.1425 1.08318 6.26722 1.38529C6.31668 1.3963 6.36529 1.41059 6.41271 1.42833C6.72282 1.50769 6.99999 1.68149 7.20508 1.92497C7.29715 2.00953 7.36991 2.11251 7.4185 2.22714C7.53155 2.46014 7.597 2.71289 7.61108 2.97096C7.62519 3.22903 7.5877 3.48742 7.50071 3.7311C7.40962 3.95334 7.24471 4.1381 7.03319 4.25517C6.82166 4.37225 6.57613 4.41449 6.33704 4.37498C6.1357 4.33026 5.95668 4.21703 5.83126 4.05488C5.6898 3.89657 5.5549 3.73103 5.41817 3.56914C5.21057 3.30171 4.91224 3.11751 4.57817 3.05072C4.24413 2.98393 3.89693 3.03897 3.60068 3.20566H3.60179ZM9.62395 43.7C9.58977 43.6381 9.56526 43.5712 9.55122 43.5021C9.54031 43.5273 9.52835 43.5416 9.51744 43.5668C9.4674 43.4909 9.43471 43.4056 9.42159 43.3161C9.4085 43.2265 9.4153 43.1351 9.44151 43.0484C9.46777 42.9617 9.51286 42.8818 9.57355 42.8142C9.63428 42.7465 9.70919 42.6925 9.79308 42.6566C9.93373 42.5691 10.1033 42.5393 10.2658 42.5735C10.4283 42.6076 10.5709 42.7033 10.6633 42.8401C10.752 42.9185 10.8237 43.0138 10.8738 43.1207C10.1811 42.8581 9.9058 42.9948 9.6229 43.7H9.62395ZM15.4247 46.2796C15.3839 46.221 15.3557 46.1552 15.3418 46.0854C15.3341 46.1105 15.3243 46.1213 15.3167 46.1501C15.242 46.0663 15.1964 45.9609 15.1865 45.8497C15.1767 45.7382 15.2032 45.6266 15.2622 45.5313C15.3309 45.3949 15.4401 45.2827 15.575 45.2093C15.71 45.1362 15.8643 45.1053 16.0174 45.1211C16.1012 45.1254 16.1827 45.1488 16.2558 45.1895C16.329 45.2301 16.3917 45.2866 16.4393 45.355C16.5458 45.4302 16.6268 45.5356 16.6716 45.6572C15.8818 45.4413 15.6149 45.5745 15.4236 46.2796H15.4247Z" fill="black"/>
</g>
<defs>
<clipPath id="clip0_3002_55">
<rect width="60" height="68" fill="white"/>
</clipPath>
</defs>
</svg>
